:SAMPLES-PER-SECOND 30
:FULLY-SPECIFIED
:DEGREES
404
root  1.432093297 38.92088762 4.511089025 173.1430054 -70.72000122 -169.7529907
lowerback  13.23779964 3.601720095 1.291679978
upperback  3.605400085 4.739359856 0.04466240108
thorax  -3.504220009 2.257960081 -1.42572999
lowerneck  0.3804289997 8.877449989 -1.199659944
upperneck  6.133269787 11.5468998 4.637569904
head  1.495300055 5.779510021 1.751119971
lclavicle  0 -9.442270133e-015 7.951389973e-016
lhumerus  -20.70240021 6.680850029 75.41329956
lradius  3.013898263e-031 -1.83990796e-031 148.5970001
lwrist  0 2.648343779e-031 41.04600143
lhand  -1.496451383e-031 -27.76390076 20.11240005
lfingers  90 7.125020027 -90
lthumb  89.89689403 5.08795885 91.16245106
rclavicle  0 -9.442270133e-015 7.951389973e-016
rhumerus  -4.74104023 19.13509941 -87.10079956
rradius  -2.192770869e-031 2.767778884e-031 128.3880005
rwrist  7.062250077e-031 5.296687558e-031 -45.49250031
rhand  -7.920061211e-032 -33.2840004 9.303460121
rfingers  -90 -7.125020027 -90
rthumb  -92.93752616 -24.25625642 -97.11982154
rfemur  -9.082579613 13.39760017 8.308369637
rtibia  -0 0 43.92750168
rfoot  -0 -20.49850082 -6.746319771
rtoes  5.373923086 19.29304026 -105.8922705
lfemur  -27.99620056 8.8791399 -3.514590025
ltibia  -0 0 62.88240051
lfoot  4.471699522e-032 -9.221650124 3.757289886
ltoes  -4.250644065 -19.5611806 -102.515957
405
root  1.531537781 39.07177843 4.483622078 174.4630127 -69.98699951 -171.1690063
lowerback  13.24720001 3.651639938 0.8549230099
upperback  3.91782999 4.719550133 -0.06702719629
thorax  -3.208909988 2.246140003 -1.282850027
lowerneck  0.07435149699 9.049819946 -1.039630055
upperneck  5.947780132 11.80420017 4.29377985
head  1.510849953 5.910150051 1.631420016
lclavicle  0 -9.442270133e-015 7.951389973e-016
lhumerus  -20.27700043 7.065820217 74.93289948
lradius  2.999907682e-031 -1.862631992e-031 148.1640015
lwrist  0 8.827812596e-032 40.84579849
lhand  -1.496451383e-031 -27.76390076 20.11240005
lfingers  90 7.125020027 -90
lthumb  89.89689403 5.08795885 91.16245106
rclavicle  0 -9.442270133e-015 7.951389973e-016
rhumerus  -4.69464016 19.5048008 -87.27189636
rradius  -2.172423347e-031 2.783778159e-031 127.9680023
rwrist  7.062250077e-031 5.296687558e-031 -45.31790161
rhand  -7.920061211e-032 -33.2840004 9.303460121
rfingers  -90 -7.125020027 -90
rthumb  -92.93752616 -24.25625642 -97.11982154
rfemur  -10.32339954 12.79360008 7.506649971
rtibia  -0 0 44.9455986
rfoot  -4.668892738e-032 -19.02330017 -5.238500118
rtoes  5.373923086 19.29304026 -105.8922705
lfemur  -28.7609005 9.096830368 -3.321399927
ltibia  -0 0 63.67520142
lfoot  4.443906462e-032 -6.661340237 1.529539943
ltoes  -4.250644065 -19.5611806 -102.515957
406
root  1.624457855 39.22266622 4.470777887 175.6279907 -69.21499634 -172.309021
lowerback  13.41250038 3.769659996 0.6586769819
upperback  3.973619938 4.834899902 -0.2235359997
thorax  -3.239650011 2.300100088 -1.362789989
lowerneck  -0.006740040146 9.154089928 -0.8787969947
upperneck  5.972370148 11.94569969 4.161739826
head  1.546409965 5.982450008 1.572510004
lclavicle  0 -9.442270133e-015 7.951389973e-016
lhumerus  -19.97050095 6.944069862 74.5062027
lradius  2.985679998e-031 -1.88535381e-031 147.7290039
lwrist  -7.062250077e-031 2.648343779e-031 40.55400085
lhand  -1.496451383e-031 -27.76390076 20.11240005
lfingers  90 7.125020027 -90
lthumb  89.89689403 5.08795885 91.16245106
rclavicle  0 -9.442270133e-015 7.951389973e-016
rhumerus  -4.837319851 19.7310009 -87.33159637
rradius  -2.159865995e-031 2.793532338e-031 127.7099991
rwrist  7.062250077e-031 3.531125038e-031 -44.51789856
rhand  -7.920061211e-032 -33.2840004 9.303460121
rfingers  -90 -7.125020027 -90
rthumb  -92.93752616 -24.25625642 -97.11982154
rfemur  -11.82979965 12.21539974 6.726590157
rtibia  -0 0 46.10660172
rfoot  -4.620242701e-032 -17.18790054 -3.874160051
rtoes  5.373923086 19.29304026 -105.8922705
lfemur  -29.55139923 9.370140076 -3.131870031
ltibia  -0 0 64.28679657
lfoot  4.979997472e-032 -4.351079941 -0.7150599957
ltoes  -4.250644065 -19.5611806 -102.515957
407
root  1.711646591 39.36288789 4.474577941 176.5319824 -68.36599731 -173.302002
lowerback  13.80560017 3.92911005 0.6556469798
upperback  3.957910061 5.029829979 -0.4039059877
thorax  -3.447079897 2.390719891 -1.607750058
lowerneck  0.09796249866 9.231679916 -0.8104389906
upperneck  6.050220013 12.03919983 4.211130142
head  1.551980019 6.029119968 1.574339986
lclavicle  0 -9.442270133e-015 7.951389973e-016
lhumerus  -19.63629913 6.690219879 73.92559814
lradius  2.972644782e-031 -1.905840245e-031 147.3350067
lwrist  -7.062250077e-031 1.765562519e-031 40.6228981
lhand  -1.496451383e-031 -27.76390076 20.11240005
lfingers  90 7.125020027 -90
lthumb  89.89689403 5.08795885 91.16245106
rclavicle  0 -9.442270133e-015 7.951389973e-016
rhumerus  -4.909739971 19.46179962 -87.33450317
rradius  -2.133245657e-031 2.813913113e-031 127.1660004
rwrist  0 7.062250077e-031 -45.09830093
rhand  -7.920061211e-032 -33.2840004 9.303460121
rfingers  -90 -7.125020027 -90
rthumb  -92.93752616 -24.25625642 -97.11982154
rfemur  -13.37040043 11.84000015 5.998280048
rtibia  -0 0 47.43320084
rfoot  -6.859908538e-032 -15.17020035 -2.399039984
rtoes  5.373923086 19.29304026 -105.8922705
lfemur  -30.01849937 9.596810341 -3.02579999
ltibia  -0 0 64.67430115
lfoot  4.419075758e-032 -2.771640062 -2.637650013
ltoes  -4.250644065 -19.5611806 -102.515957
408
root  1.798746717 39.49133205 4.497199922 177.6019897 -67.58499908 -174.5650024
lowerback  14.16950035 4.004220009 0.5310590267
upperback  4.05024004 5.08701992 -0.6051599979
thorax  -3.536920071 2.41230011 -1.779350042
lowerneck  0.1758430004 9.380610466 -0.7147020102
upperneck  6.127830029 12.23239994 4.169650078
head  1.56693995 6.124899864 1.546270013
lclavicle  0 -9.442270133e-015 7.951389973e-016
lhumerus  -19.06780052 6.740600109 73.08830261
lradius  2.962792333e-031 -1.92112093e-031 147.0399933
lwrist  -1.412450015e-030 6.179468817e-031 41.23989868
lhand  -1.496451383e-031 -27.76390076 20.11240005
lfingers  90 7.125020027 -90
lthumb  89.89689403 5.08795885 91.16245106
rclavicle  0 -9.442270133e-015 7.951389973e-016
rhumerus  -4.541150093 19.06360054 -87.30889893
rradius  -2.122523701e-031 2.822009422e-031 126.947998
rwrist  0 5.296687558e-031 -46.3266983
rhand  -7.920061211e-032 -33.2840004 9.303460121
rfingers  -90 -7.125020027 -90
rthumb  -92.93752616 -24.25625642 -97.11982154
rfemur  -14.92819977 11.36330032 5.119490147
rtibia  -0 0 48.90119934
rfoot  -5.095627726e-032 -12.9691 -0.811349988
rtoes  5.373923086 19.29304026 -105.8922705
lfemur  -30.33729935 9.705149651 -3.168960094
ltibia  -0 0 64.85230255
lfoot  4.417381117e-032 -2.272739887 -4.497310162
ltoes  -4.250644065 -19.5611806 -102.515957
409
root  1.878735587 39.61355555 4.525400147 179.1209717 -66.89499664 -176.3959961
lowerback  14.52260017 4.083759785 -0.1009910032
upperback  4.181769848 5.078249931 -0.6883839965
thorax  -3.637109995 2.400680065 -1.533650041
lowerneck  0.1981479973 9.545700073 -0.7271339893
upperneck  6.385069847 12.44659996 4.061339855
head  1.646679997 6.228769779 1.525740027
lclavicle  0 -9.442270133e-015 7.951389973e-016
lhumerus  -18.39920044 6.9416399 72.46150208
lradius  2.955832302e-031 -1.931812476e-031 146.8329926
lwrist  -7.062250077e-031 6.179468817e-031 41.88000107
lhand  -1.496451383e-031 -27.76390076 20.11240005
lfingers  90 7.125020027 -90
lthumb  89.89689403 5.08795885 91.16245106
rclavicle  0 -9.442270133e-015 7.951389973e-016
rhumerus  -4.008460045 19.00020027 -87.18419647
rradius  -2.111178569e-031 2.830506861e-031 126.7180023
rwrist  7.062250077e-031 3.531125038e-031 -47.01750183
rhand  -7.920061211e-032 -33.2840004 9.303460121
rfingers  -90 -7.125020027 -90
rthumb  -92.93752616 -24.25625642 -97.11982154
rfemur  -16.44729996 10.72649956 3.970880032
rtibia  -0 0 50.43180084
rfoot  -4.770850174e-032 -10.57789993 0.3837009966
rtoes  5.373923086 19.29304026 -105.8922705
lfemur  -30.55579948 9.691860199 -3.646919966
ltibia  -0 0 64.81590271
lfoot  8.835734523e-032 -2.42640996 -6.239170074
ltoes  -4.250644065 -19.5611806 -102.515957
410
root  1.943891067 39.72333473 4.553999863 -179.5360107 -66.21800232 -178.0250244
lowerback  14.90040016 4.275809765 -0.9256560206
upperback  4.196499825 5.202000141 -0.5695049763
thorax  -3.907390118 2.456739902 -1.001909971
lowerneck  0.2390809953 9.596380234 -0.8949819803
upperneck  6.89218998 12.49979973 3.987649918
head  1.796489954 6.248600006 1.548670053
lclavicle  0 -9.442270133e-015 7.951389973e-016
lhumerus  -17.75769997 6.894939899 72.12989807
lradius  2.950527801e-031 -1.939904568e-031 146.6759949
lwrist  -7.062250077e-031 5.296687558e-031 42.07509995
lhand  -1.496451383e-031 -27.76390076 20.11240005
lfingers  90 7.125020027 -90
lthumb  89.89689403 5.08795885 91.16245106
rclavicle  0 -9.442270133e-015 7.951389973e-016
rhumerus  -3.541490078 19.10409927 -86.58920288
rradius  -2.106037127e-031 2.834334429e-031 126.6139984
rwrist  7.062250077e-031 5.296687558e-031 -46.95140076
rhand  -7.920061211e-032 -33.2840004 9.303460121
rfingers  -90 -7.125020027 -90
rthumb  -92.93752616 -24.25625642 -97.11982154
rfemur  -17.94729996 10.20349979 2.936759949
rtibia  -0 0 51.91609955
rfoot  -5.016828126e-032 -8.191399574 0.5649369955
rtoes  5.373923086 19.29304026 -105.8922705
lfemur  -30.70140076 9.612649918 -4.098750114
ltibia  -0 0 64.64320374
lfoot  -0 -2.568059921 -7.484360218
ltoes  -4.250644065 -19.5611806 -102.515957
